# xmcd
#
# Track frame offsets:
#	150
#	13520
#	25152
#	39631
#	49357
#	63601
#	74191
#	86152
#	97457
#	111203
#	122549
#	136013
#	147839
#	157651
#	168061
#	184791
#	198565
#	209437
#	223201
#	235409
#	246154
#	261017
#	272412
#	287767
#	300922
#	323171
#
# Disc length: 4445 seconds
#
# Revision: 1
# Processed by: cddbd v1.5.1PL2 Copyright (c) Steve Scherf et al.
# Submitted via: audiograbber 1.82.02
#
DISCID=85115b1a
DTITLE=Various Artist - Nr.1 Hit's in Deutschland 1965-1968
DYEAR=2002
DGENRE=Oldies
TTITLE0=Ronny - 1965 - Kleine Annabell
TTITLE1=Bernd Spier  - 1965 - Das war mein schönster Tanz
TTITLE2=Petula Clark - 1965 - Downtown
TTITLE3=Drafi Deutscher - 1965 - Heute male ich dein Bild
TTITLE4=Nino Rosso - 1965 - Il Silenzio
TTITLE5=Sam and The Phaaohs - 1965 - Wolly Bully
TTITLE6=Drafi Deutscher - 1965 - Marmor Stein und Eisen bricht
TTITLE7=Chris Andrews - 1966 - Yesterday Man
TTITLE8=Roy Black - 1966 - Ganz in weiss
TTITLE9=Freddy Quinn - 1966 - Hundert Mann und ein Befehl
TTITLE10=Beach Boys - 1966 - Sloop John B
TTITLE11=Frank Sinatra - 1966 - Strangers in the night
TTITLE12=Kinks - 1966 - Dandy
TTITLE13=David Garrick - 1967 - Dear Mrs. Applebee
TTITLE14=Rolling Stones - 1967 - Let's spend the night together
TTITLE15=The Beatles - 1967 - Penny Lane
TTITLE16=Sandy Shaw - 1967 - Puppe on a string
TTITLE17=Scott McKenzie - 1967 - San Francisco
TTITLE18=Peggy March - 1967 - Romeo und Julia
TTITLE19=Bee Gees - 1967 - Massachusetts
TTITLE20=Peter Alexander - 1968 - Der letzte Walzer
TTITLE21=Heintje - 1968 - Mama
TTITLE22=Tom Jones - 1968 - Delilah
TTITLE23=Tom Jones - 1968 - Help yourself
TTITLE24=Mary Hopkin - 1968 - Those where the days
TTITLE25=Gerhard Schröder - 2002 - Der Steuersong
EXTD=
EXTT0=
EXTT1=
EXTT2=
EXTT3=
EXTT4=
EXTT5=
EXTT6=
EXTT7=
EXTT8=
EXTT9=
EXTT10=
EXTT11=
EXTT12=
EXTT13=
EXTT14=
EXTT15=
EXTT16=
EXTT17=
EXTT18=
EXTT19=
EXTT20=
EXTT21=
EXTT22=
EXTT23=
EXTT24=
EXTT25=
PLAYORDER=
